<?xml version="1.0" encoding="UTF-8"?>
<svg version="1.1" xmlns="http://www.w3.org/2000/svg" width="1200" height="1200">
<path d="M0 0 C-1.64300991 3.73248991 -3.98323062 6.68125151 -6.5 9.875 C-7.41030077 11.04966163 -8.31911199 12.22547884 -9.2265625 13.40234375 C-9.6896582 14.00288574 -10.15275391 14.60342773 -10.62988281 15.22216797 C-11.08202148 15.80885254 -11.53416016 16.39553711 -12 17 C-12.4134668 17.53383301 -12.82693359 18.06766602 -13.25292969 18.61767578 C-45.44347616 60.55386466 -58.40830822 114.72751948 -51.86621094 166.85302734 C-50.02901895 179.5581413 -47.11691893 191.84573251 -43 204 C-42.70609375 204.86818359 -42.4121875 205.73636719 -42.109375 206.63085938 C-32.8061408 233.53533963 -18.05281764 259.0101317 0 281 C1.39611061 282.77061474 2.79195656 284.5414382 4.1875 286.3125 C10.22272196 293.79665422 16.67919678 300.84498143 23.24316406 307.86401367 C26.05163638 310.87314884 28.79970496 313.90117312 31.4375 317.0625 C39.82637342 326.76278539 50.01867165 335.02020452 60 343 C61.23837254 344.01653409 62.47525331 345.03488719 63.7109375 346.0546875 C72.58382892 353.36215823 81.62116833 360.35383206 91 367 C91.62841797 367.44553223 92.25683594 367.89106445 92.90429688 368.35009766 C128.01051817 393.11156694 166.14743748 413.97545539 206 430 C209.19550502 431.28540991 212.39095904 432.57086152 215.58422852 433.86181641 C217.5243259 434.6439624 219.46740706 435.41876018 221.41381836 436.18505859 C222.69591187 436.69866943 222.69591187 436.69866943 224.00390625 437.22265625 C224.75486572 437.51922119 225.5058252 437.81578613 226.27954102 438.12133789 C228 439 228 439 229 441 C225.91976394 441.89934325 223.17287489 442.12525097 219.96886635 442.12584114 C218.43804387 442.12975276 218.43804387 442.12975276 216.87629569 442.13374341 C215.19688708 442.13039732 215.19688708 442.13039732 213.48355103 442.12698364 C211.69707769 442.12932363 211.69707769 442.12932363 209.87451398 442.13171089 C206.56658396 442.13501379 203.25871057 442.13381883 199.95078397 442.13072467 C196.38241965 442.12846521 192.81406035 442.13195335 189.24569702 442.13470459 C182.24707414 442.13915895 175.24846197 442.13818627 168.24983867 442.13529195 C162.54748244 442.13303193 156.84512922 442.13272801 151.14277267 442.13381577 C150.33046939 442.133969 149.51816612 442.13412223 148.68124758 442.13428011 C147.03063366 442.13459986 145.38001973 442.13492407 143.72940581 442.1352527 C128.22945418 442.13810771 112.72950845 442.13482257 97.2295578 442.12945233 C83.9891358 442.12500616 70.74872261 442.12574201 57.50830078 442.13037109 C42.1034418 442.13575446 26.69858803 442.13781004 11.29372823 442.13475883 C9.6412979 442.13444033 7.98886756 442.13412596 6.33643723 442.13381577 C5.11727424 442.13358435 5.11727424 442.13358435 3.8734817 442.13334826 C-1.79513555 442.13249268 -7.46374945 442.13392555 -13.13236618 442.13629532 C-20.08133818 442.13913647 -27.03029892 442.138267 -33.97926967 442.13301457 C-37.51103499 442.13043119 -41.04278174 442.12927785 -44.57454681 442.13266373 C-58.73725776 442.14292848 -72.88458172 442.01830347 -87.03994751 441.57003784 C-88.23711155 441.53339685 -89.4342756 441.49675585 -90.66771734 441.45900452 C-137.49890391 439.81093718 -186.77168841 428.76095903 -222 396 C-222.50724609 395.54044922 -223.01449219 395.08089844 -223.53710938 394.60742188 C-241.10379811 378.59924798 -252.10880966 357.87403073 -258 335 C-258.47953125 333.20755859 -258.47953125 333.20755859 -258.96875 331.37890625 C-263.40837588 311.29782067 -263.05327573 286.91344776 -258 267 C-257.80132324 266.19272461 -257.60264648 265.38544922 -257.39794922 264.55371094 C-254.05355855 251.2513031 -249.45467843 238.57291513 -244 226 C-243.69368652 225.28956543 -243.38737305 224.57913086 -243.07177734 223.84716797 C-232.2725102 199.115621 -217.96409115 174.99630297 -201 154 C-200.31292969 153.13246094 -199.62585938 152.26492188 -198.91796875 151.37109375 C-196.95927149 148.9024398 -194.98380303 146.44851279 -193 144 C-191.95585937 142.71029297 -191.95585937 142.71029297 -190.890625 141.39453125 C-188.60538538 138.58660384 -186.30316444 135.79324234 -184 133 C-183.22962402 132.05592285 -182.45924805 131.1118457 -181.66552734 130.13916016 C-174.81959769 121.87756396 -167.51159951 114.20145116 -159.90209961 106.64135742 C-157.92909897 104.67914491 -155.96711309 102.70636821 -154.00585938 100.73242188 C-147.30789208 94.02739616 -140.54202391 87.76179774 -133 82 C-130.95466655 80.29774345 -128.95011843 78.55381635 -126.9375 76.8125 C-114.27251505 66.00545438 -100.85358254 56.21881419 -87 47 C-86.25975586 46.50564453 -85.51951172 46.01128906 -84.75683594 45.50195312 C-60.79864163 29.55663371 -36.10535501 14.42692454 -9.75 2.75 C-9.10023193 2.46189453 -8.45046387 2.17378906 -7.78100586 1.87695312 C-4.99914295 0.68845238 -3.06148775 0 0 0 Z " fill="#94a3b8" transform="translate(451,314)"/>
<path d="M0 0 C0.68368652 0.21430664 1.36737305 0.42861328 2.07177734 0.64941406 C6.82228641 2.1928521 11.42390378 4.00111344 16 6 C16.65033203 6.28327148 17.30066406 6.56654297 17.97070312 6.85839844 C34.27726445 14.12807233 48.28080831 24.56267406 61 37 C61.98069166 37.92042203 62.96247712 38.83967991 63.9453125 39.7578125 C83.9370752 58.72628465 98.0022384 83.35240529 111.39501953 107.15087891 C112.68746424 109.44519435 113.99412086 111.73002653 115.30859375 114.01171875 C157.76192142 190.00405788 169.52301848 288.54467347 160 390 C156.38348858 385.95708767 154.54611055 381.97836175 152.625 377 C152.01365407 375.47188057 151.40035226 373.94454226 150.78515625 372.41796875 C150.48367676 371.66692871 150.18219727 370.91588867 149.87158203 370.14208984 C130.8567642 323.40931348 93.35565827 285.05695744 47.11328125 264.8046875 C-14.17112886 239.05463158 -81.5332352 243.61173055 -144 263 C-145.06605469 263.32838867 -146.13210938 263.65677734 -147.23046875 263.99511719 C-212.62869183 284.36917899 -271.22665927 318.9337464 -324.99609375 360.86328125 C-325.69202637 361.40291504 -326.38795898 361.94254883 -327.10498047 362.49853516 C-328.72290208 363.78044934 -330.29113963 365.12465523 -331.84765625 366.48046875 C-332.55792969 366.98191406 -333.26820313 367.48335938 -334 368 C-334.99 367.67 -335.98 367.34 -337 367 C-331.91643569 357.85496368 -326.72422991 348.77917232 -321.4375 339.75 C-316.259973 330.9046759 -311.13889031 322.02866641 -306.0625 313.125 C-299.03419098 300.79961985 -291.95759477 288.50277779 -284.85888672 276.21777344 C-282.36310656 271.89752357 -279.86993703 267.57577013 -277.37695312 263.25390625 C-275.50290437 260.00503504 -273.62840572 256.75642368 -271.75390625 253.5078125 C-269.23930564 249.14934612 -266.72645339 244.78987809 -264.21484375 240.4296875 C-258.19252671 229.97793801 -252.15330663 219.53700452 -246.0625 209.125 C-240.98724877 200.44737759 -235.97741233 191.73394432 -231 183 C-225.4599827 173.27884383 -219.86625191 163.59105342 -214.21655273 153.93310547 C-209.97382546 146.67787964 -205.76049118 139.40619698 -201.5625 132.125 C-200.94342773 131.05258057 -200.32435547 129.98016113 -199.68652344 128.87524414 C-196.46644543 123.29358064 -193.2593791 117.70491316 -190.0703125 112.10546875 C-162.72592862 64.18524829 -125.77952488 15.128209 -69.8828125 -0.15625 C-47.84558113 -5.91164361 -21.93910951 -6.91152958 0 0 Z " fill="#94a3b8" transform="translate(636,4)"/>
<path d="M0 0 C3.17440814 2.92629249 5.2534503 5.84345489 7.36328125 9.6015625 C7.99484131 10.71781006 8.62640137 11.83405762 9.27709961 12.98413086 C9.60821747 13.57644501 9.93933533 14.16875916 10.28048706 14.77902222 C11.33289083 16.6614734 12.3930113 18.53938347 13.45532227 20.41625977 C14.92521049 23.01374191 16.39261437 25.61260222 17.85839844 28.21240234 C21.01708508 33.80718751 24.22439334 39.37383383 27.4375 44.9375 C28.04706543 45.99348389 28.65663086 47.04946777 29.28466797 48.13745117 C38.777042 64.55779712 48.3746935 80.91699205 58.07250977 97.21679688 C66.19976096 110.88086881 74.13634602 124.64483771 81.99121094 138.46630859 C85.36241423 144.39804158 88.74256811 150.32466435 92.125 156.25 C92.62383698 157.1242865 92.62383698 157.1242865 93.13275146 158.01623535 C97.7478605 166.10229039 102.41617662 174.15565692 107.125 182.1875 C112.45228942 191.275672 117.62763538 200.44056159 122.75048828 209.64526367 C126.74986029 216.81410731 130.84423371 223.92081509 135 231 C142.17294231 243.2381431 149.17963172 255.5616868 156 268 C156.53399414 268.97324219 157.06798828 269.94648438 157.61816406 270.94921875 C173.78968751 300.62872061 188.99320354 334.48357573 189.203125 368.9609375 C189.20882507 369.70977203 189.21452515 370.45860657 189.22039795 371.23013306 C189.22979745 372.81177381 189.2363617 374.39343371 189.24023438 375.97509766 C189.2498333 378.33403264 189.28085914 380.69205403 189.3125 383.05078125 C189.54264202 416.00573764 177.61415186 446.86972982 154.80322266 470.73291016 C147.14683665 478.48197602 139.1809969 485.15251343 130 491 C129.06542969 491.61875 128.13085938 492.2375 127.16796875 492.875 C67.59261774 530.20333182 -17.59817594 520.15724778 -82.93286133 505.69140625 C-101.34479066 501.40234378 -119.2154994 495.36047613 -137 489 C-137.64022095 488.77119141 -138.28044189 488.54238281 -138.94006348 488.30664062 C-182.68603964 472.59069633 -233.45063146 449.6847224 -268 418 C-268 417.67 -268 417.34 -268 417 C-262.70939411 416.84072783 -257.93292462 417.41518001 -252.75 418.4375 C-232.19986412 422.46656041 -210.66227973 422.10109152 -190 419 C-189.23365234 418.8870459 -188.46730469 418.7740918 -187.67773438 418.65771484 C-151.70022642 413.07267776 -116.31477211 397.10472137 -89.53515625 372.27734375 C-86.9224218 369.93031111 -84.20594781 367.78508237 -81.4375 365.625 C-76.73083717 361.80950054 -73.01933197 357.70188199 -69.3046875 352.9296875 C-67.28496977 350.36224971 -65.17926269 347.90838871 -63.01586914 345.4621582 C-22.62084923 299.366314 -4.59731134 231.58585834 3.25 172.3125 C3.40114258 171.17635254 3.55228516 170.04020508 3.70800781 168.86962891 C6.45354493 146.61714352 7.37998194 124.34377975 7.3125 101.9375 C7.31026428 100.08203552 7.31026428 100.08203552 7.3079834 98.18908691 C7.25070907 71.62320012 5.28471945 45.71644836 1.27050781 19.45410156 C0.28529504 12.90714185 -0.24381854 6.62140167 0 0 Z " fill="#94a3b8" transform="translate(821,235)"/>
<path d="M0 0 C12.07308294 4.13312749 22.46429594 16.16476226 29.26171875 26.60546875 C32.64379264 31.26437054 37.03786005 34.9821651 41.26489258 38.85717773 C66.58110968 62.13523844 85.42960897 91.10720705 87.11669922 126.44433594 C88.40755097 161.5991741 77.4326277 193.72805974 53.37866211 219.66625977 C30.39325042 243.44770303 -2.09496563 256.73228178 -34.98266602 257.29248047 C-47.51456352 257.36782438 -58.95632113 256.51624416 -71 253 C-71.70882324 252.79632812 -72.41764648 252.59265625 -73.14794922 252.3828125 C-104.93687354 242.9357944 -130.30889834 222.6139384 -146.25 193.625 C-160.15067919 167.32412917 -162.7799308 134.75579389 -156 106 C-155.83902832 105.30535645 -155.67805664 104.61071289 -155.51220703 103.89501953 C-151.39448879 86.80312661 -143.78863463 70.87617152 -133 57 C-132.36191406 56.17677246 -132.36191406 56.17677246 -131.7109375 55.33691406 C-125.56595586 47.49846891 -119.02896937 40.96874995 -111 35 C-110.22398437 34.39800781 -109.44796875 33.79601562 -108.6484375 33.17578125 C-84.04595462 14.86791355 -50.3322377 7.51180853 -20.125 11.8125 C-16.74208451 12.43914034 -14.01380856 13.33890086 -11 15 C-14.56622854 24.91801867 -22.31686076 32.66278311 -29.41015625 40.234375 C-32.69997767 43.74748747 -35.85968232 47.35381525 -39 51 C-39.84304688 51.95261719 -40.68609375 52.90523438 -41.5546875 53.88671875 C-61.77039092 76.95694616 -71.61632033 101.17189663 -70 132 C-69.39228019 140.09884474 -69.39228019 140.09884474 -66 147 C-65.6596875 145.77667969 -65.319375 144.55335938 -64.96875 143.29296875 C-57.03483575 115.44200157 -45.09432862 89.21691681 -25 68 C-24 71 -24 71 -24.84521484 72.90673828 C-25.52124756 73.97770752 -25.52124756 73.97770752 -26.2109375 75.0703125 C-26.70940186 75.87500977 -27.20786621 76.67970703 -27.72143555 77.50878906 C-28.26711182 78.37213867 -28.81278809 79.23548828 -29.375 80.125 C-30.49638949 81.95395431 -31.61484433 83.78471093 -32.73046875 85.6171875 C-33.28782715 86.53081055 -33.84518555 87.44443359 -34.41943359 88.38574219 C-53.88084103 120.57492211 -75.50037399 172.95473977 -66.5 211.1875 C-63.14030001 223.90134568 -56.3358931 235.61213568 -48.25 245.875 C-47.63640625 246.65617188 -47.0228125 247.43734375 -46.390625 248.2421875 C-45.70226562 249.11230469 -45.70226562 249.11230469 -45 250 C-45.63822734 246.91292212 -46.71587322 244.55547984 -48.25 241.8125 C-50.67026201 237.09158196 -52.27106406 232.32414839 -53.75 227.25 C-53.96043945 226.52917236 -54.17087891 225.80834473 -54.38769531 225.06567383 C-60.68050311 202.78594148 -58.12253138 178.76732347 -47.07421875 158.52734375 C-44.46512316 153.97558669 -41.46127373 149.93816033 -38 146 C-37.41992188 145.278125 -36.83984375 144.55625 -36.2421875 143.8125 C-30.02001493 136.31465189 -22.30078809 130.86258977 -14.48046875 125.1640625 C1.80560128 113.01368451 10.3294098 96.7058913 14.609375 77.2265625 C17.56128476 52.84378786 12.9690205 27.42999653 1.78125 5.546875 C0 2 0 2 0 0 Z M-125 93 C-133.09938195 108.54347409 -136.08736152 123.4062401 -131.375 140.5625 C-125.3920147 158.36134515 -113.23802973 170.85214632 -96.96875 179.63671875 C-91.9786271 182.02896174 -87.53071283 183.63128581 -82 184 C-82.49047011 170.02160175 -89.92458749 157.67669356 -97 146 C-97.86044922 144.56527344 -97.86044922 144.56527344 -98.73828125 143.1015625 C-99.15464844 142.40804687 -99.57101562 141.71453125 -100 141 C-91.23825166 148.69971824 -86.40991195 159.80540189 -81.5625 170.1875 C-81.02173828 171.33025391 -80.48097656 172.47300781 -79.92382812 173.65039062 C-78.60933995 176.43059127 -77.30154573 179.21372327 -76 182 C-71.69839892 174.4051532 -73.14208608 162.73136961 -74.65234375 154.40234375 C-79.52439659 138.53157934 -91.47020777 126.40468871 -104.1484375 116.28515625 C-109.63972367 111.72835212 -113.60978419 106.73091211 -117.55029297 100.83569336 C-119.72785995 97.60693344 -121.69094475 95.09750184 -125 93 Z M21 102 C19.91408387 103.58224899 18.9075854 105.21920412 17.9375 106.875 C14.21859335 112.89019621 9.8923397 117.91580385 5 123 C4.39027344 123.63808594 3.78054688 124.27617187 3.15234375 124.93359375 C-0.35741272 128.52329911 -4.0531883 131.85206416 -7.84765625 135.13671875 C-28.92446438 153.38288477 -47.61100741 171.88547279 -51 201 C-51.13063965 203.77269047 -51.14320938 206.53713866 -51.125 209.3125 C-51.12161621 210.05435547 -51.11823242 210.79621094 -51.11474609 211.56054688 C-51.18038345 219.84760097 -51.18038345 219.84760097 -50 228 C-49.34 228.33 -48.68 228.66 -48 229 C-47.40481567 227.77821045 -47.40481567 227.77821045 -46.79760742 226.53173828 C-31.50319937 195.24561544 -31.50319937 195.24561544 -22 181 C-21.58443848 180.37254883 -21.16887695 179.74509766 -20.74072266 179.09863281 C-13.15276753 167.75663673 -4.51367282 157.75153009 6 149 C4.80117188 150.51013672 4.80117188 150.51013672 3.578125 152.05078125 C-13.55696967 173.88204419 -35.82980519 203.86508569 -40 232 C-20.79333635 229.37885531 -4.68793466 219.26714824 9 206 C9.59941406 205.4740625 10.19882812 204.948125 10.81640625 204.40625 C25.41699375 191.12682935 34.26763229 170.06207115 35.28125 150.61328125 C35.81670523 133.09064865 31.17562065 117.442839 23 102 C22.34 102 21.68 102 21 102 Z " fill="#94a3b8" transform="translate(633,322)"/>
<path d="M0 0 C22.11 0 44.22 0 67 0 C69.3468828 9.38753119 71.67264915 18.70846192 73.63757324 28.17324829 C73.78311142 28.87310474 73.9286496 29.5729612 74.07859802 30.29402542 C74.22797318 31.01426266 74.37734833 31.73449989 74.53125 32.4765625 C74.68807755 33.22982189 74.84490509 33.98308128 75.00648499 34.75916672 C75.83821969 38.75471048 76.66615618 42.75101786 77.49072266 46.74804688 C78.15715569 49.97566087 78.83008463 53.2018051 79.50927734 56.42675781 C90.60231086 109.12607695 90.60231086 109.12607695 90 126 C90.66 126 91.32 126 92 126 C92.04273041 125.17916931 92.08546082 124.35833862 92.12948608 123.51263428 C92.70002352 114.11195935 93.95609958 104.91893994 95.5390625 95.640625 C95.66766285 94.87621346 95.7962632 94.11180191 95.92876053 93.32422638 C99.04416834 74.87540405 102.90073922 56.58715059 106.82897949 38.29736328 C107.92616587 33.17863191 109.0111214 28.05729358 110.09831238 22.93643188 C111.72324377 15.28900468 113.36292219 7.64488116 115 0 C137.11 0 159.22 0 182 0 C182 66.99 182 133.98 182 203 C166.82 203 151.64 203 136 203 C136.45902304 183.35113996 136.45902304 183.35113996 136.66210938 174.68945312 C136.79834202 168.87899336 136.93449982 163.06853194 137.07006836 157.25805664 C137.17930639 152.57668863 137.2889227 147.89532962 137.3988533 143.21397781 C137.44294597 141.33533559 137.48694937 139.45669127 137.53086472 137.57804489 C137.76849475 127.42545566 138.01539854 117.27325605 138.28955078 107.12158203 C138.31296445 106.24599042 138.33637812 105.37039881 138.36050129 104.46827412 C138.47021691 100.36644957 138.58198227 96.26470849 138.69847107 92.16307068 C138.98377912 81.77319845 139.04784883 71.39354227 139 61 C138.85146356 61.72575446 138.70292711 62.45150892 138.54988956 63.19925594 C134.94042291 80.83391137 131.32677079 98.4677043 127.70842075 116.10053921 C125.95873785 124.62755762 124.21048854 133.15486532 122.46557617 141.68286133 C120.94524194 149.11324728 119.42225642 156.5430839 117.89604419 163.97226483 C117.08753788 167.90832632 116.28038928 171.84465554 115.47641182 175.78164482 C114.72046816 179.48320447 113.96099611 183.1840221 113.19874954 186.88428879 C112.91885855 188.24620525 112.64028483 189.60839316 112.36309242 190.97086143 C111.98596103 192.82356968 111.60373471 194.67523868 111.22120667 196.52684021 C111.00827249 197.5657009 110.79533831 198.6045616 110.57595158 199.67490292 C110 202 110 202 109 203 C96.79 203 84.58 203 72 203 C62.43 156.14 52.86 109.28 43 61 C42.97178786 79.27443118 42.97178786 79.27443118 43.27539062 97.53491211 C43.31928169 99.28096237 43.31928169 99.28096237 43.36405945 101.06228638 C43.45870028 104.80071535 43.55740993 108.53902367 43.65625 112.27734375 C43.72376658 114.91247413 43.79102243 117.5476112 43.85803223 120.18275452 C44.01505888 126.34088734 44.17503057 132.49893973 44.33614779 138.65696675 C44.51988067 145.68511748 44.70019733 152.71335468 44.88027287 159.74159992 C45.24980071 174.16116386 45.62392016 188.5806054 46 203 C30.82 203 15.64 203 0 203 C0 136.01 0 69.02 0 0 Z " fill="#94a3b8" transform="translate(594,882)"/>
<path d="M0 0 C0.63679687 0.56203125 1.27359375 1.1240625 1.9296875 1.703125 C2.66960937 2.32703125 3.40953125 2.9509375 4.171875 3.59375 C20.41855167 18.36345606 22.82947266 41.34443095 23.8359375 62.1060791 C24.16870137 71.32424493 24.11556645 80.55598034 24.11499023 89.77880859 C24.11716697 93.66645423 24.1353486 97.55381091 24.15429688 101.44140625 C24.29692245 163.88979218 24.29692245 163.88979218 4.7578125 184.16015625 C-13.41273626 200.49859167 -35.9212263 200.87597709 -59.0703125 199.703125 C-75.28808379 198.00122401 -88.67666511 190.02848646 -99.0703125 177.703125 C-112.57491972 159.89392423 -112.22768375 134.79187969 -112.23828125 113.44921875 C-112.24150694 111.89762849 -112.24487191 110.34603852 -112.24836731 108.79444885 C-112.25431628 105.55623675 -112.25621172 102.31805116 -112.25561523 99.07983398 C-112.25553416 95.79950423 -112.26245206 92.51931469 -112.27612305 89.23901367 C-112.54341059 24.10097224 -112.54341059 24.10097224 -93.41796875 3.921875 C-70.89520418 -17.36419867 -24.28365341 -19.95088537 0 0 Z M-57.7578125 32.078125 C-65.16546325 41.88810969 -63.51172269 57.36305721 -63.46875 68.94921875 C-63.47077638 70.89250294 -63.47369249 72.83578638 -63.47744751 74.77906799 C-63.48184537 78.83268544 -63.47552292 82.88610322 -63.46142578 86.93969727 C-63.44434706 92.09808245 -63.45418316 97.25599873 -63.47214317 102.41436672 C-63.48305983 106.42189472 -63.4794986 110.42931425 -63.4717598 114.43684578 C-63.4697789 116.3371696 -63.47214154 118.23750373 -63.47919846 120.13781548 C-64.17028123 140.23764879 -64.17028123 140.23764879 -56.0703125 157.703125 C-50.74505084 161.69707124 -44.45001987 161.48306175 -38.0703125 160.703125 C-33.13943621 158.41378958 -30.63164753 155.45989005 -28.0703125 150.703125 C-23.98003328 138.64756519 -24.90872504 125.0292241 -24.90234375 112.4375 C-24.89911627 110.90879284 -24.89575119 109.38008597 -24.89225769 107.85137939 C-24.88632106 104.66800218 -24.88441212 101.48465188 -24.88500977 98.30126953 C-24.885091 95.07627756 -24.87814455 91.85142771 -24.86450195 88.62646484 C-22.95202083 59.01216628 -22.95202083 59.01216628 -31.0703125 31.703125 C-39.809259 24.74763697 -49.33408074 24.63389693 -57.7578125 32.078125 Z " fill="#94a3b8" transform="translate(516.0703125,889.296875)"/>
<path d="M0 0 C14.61704379 12.32158746 20.05695918 26.32861066 23.25 44.75 C23.58 51.35 23.91 57.95 24.25 64.75 C8.74 64.75 -6.77 64.75 -22.75 64.75 C-23.74 57.49 -24.73 50.23 -25.75 42.75 C-28.93059103 34.49024945 -28.93059103 34.49024945 -34.75 29.75 C-39.94611416 28.01796195 -44.88360485 28.11612995 -50.0625 29.875 C-56.33039659 34.24795111 -57.46550883 39.57966917 -59.13671875 46.75 C-60.97344178 57.09395285 -60.90785592 67.81252464 -60.91796875 78.28515625 C-60.92129715 79.52510849 -60.92462555 80.76506073 -60.92805481 82.04258728 C-60.93307987 84.6484236 -60.93546452 87.25426626 -60.93530273 89.86010742 C-60.93748115 93.77859497 -60.95566308 97.6967967 -60.97460938 101.61523438 C-61.00071916 113.01353129 -60.92686531 124.35072746 -59.8671875 135.70703125 C-59.78997971 136.5379982 -59.71277191 137.36896515 -59.63322449 138.22511292 C-58.96315673 144.46550854 -57.37880906 150.03717685 -54.75 155.75 C-54.42 156.74 -54.09 157.73 -53.75 158.75 C-47.75967233 161.96702782 -41.68429032 162.17510851 -35.171875 160.67578125 C-31.1964485 159.15614241 -29.92892053 157.40496347 -27.75 153.75 C-23.076567 142.76743246 -24.23836797 128.98246337 -23.75 117.75 C-7.91 117.75 7.93 117.75 24.25 117.75 C24.25 142.56796757 23.81442333 166.80079221 6.28515625 185.87109375 C-0.58559834 192.21434319 -8.81511908 196.2092185 -17.75 198.75 C-18.65431763 199.01490234 -18.65431763 199.01490234 -19.5769043 199.28515625 C-26.75782376 201.15618796 -33.92868199 201.1346695 -41.3125 201.125 C-41.97785767 201.12478851 -42.64321533 201.12457703 -43.32873535 201.12435913 C-62.24197902 201.06429811 -78.71048344 197.21506826 -92.75 183.75 C-108.2803075 166.07101598 -109.58789118 143.47032831 -110.3125 121 C-110.3542334 119.71939697 -110.3959668 118.43879395 -110.43896484 117.11938477 C-113.09960197 30.10569115 -113.09960197 30.10569115 -94.5 8.5625 C-71.92715544 -15.1631587 -26.978542 -19.888618 0 0 Z " fill="#94a3b8" transform="translate(327.75,888.25)"/>
<path d="M0 0 C18.81 0 37.62 0 57 0 C59.48547958 9.94191831 61.90636777 19.83477694 64.04931641 29.84619141 C64.46500885 31.77248131 64.46500885 31.77248131 64.88909912 33.73768616 C65.63977185 37.21649089 66.38725258 40.69597419 67.13413286 44.17559481 C67.93090084 47.88469075 68.73080939 51.5931094 69.53036499 55.30160522 C71.05036163 62.35381152 72.56776354 69.40657331 74.08413541 76.4595598 C76.26973272 86.62473389 78.45923917 96.78906594 80.64861679 106.95342636 C80.97894057 108.48699692 81.30926411 110.02056752 81.6395874 111.55413818 C81.80224964 112.30929458 81.96491188 113.06445098 82.13250327 113.84249091 C83.10795413 118.37129949 84.08282444 122.90023258 85.05723643 127.42926478 C88.08581125 141.50546885 91.11996585 155.58031985 94.19042969 169.64746094 C94.43155424 170.75276594 94.67267879 171.85807095 94.92111015 172.99687004 C96.02009781 178.03273562 97.1215116 183.06804968 98.22720337 188.10244751 C98.60253093 189.81877505 98.97780914 191.53511339 99.35302734 193.25146484 C99.52289028 194.02044476 99.69275322 194.78942467 99.86776352 195.581707 C101 200.77336504 101 200.77336504 101 203 C84.83 203 68.66 203 52 203 C50.02 190.46 48.04 177.92 46 165 C28.18 164.505 28.18 164.505 10 164 C9.67 167.96 9.34 171.92 9 176 C8.71628535 178.27850881 8.40956451 180.55449572 8.0625 182.82421875 C7.88976562 183.95408203 7.71703125 185.08394531 7.5390625 186.24804688 C7.36117187 187.38306641 7.18328125 188.51808594 7 189.6875 C6.82210937 190.86505859 6.64421875 192.04261719 6.4609375 193.25585938 C6.28820312 194.37154297 6.11546875 195.48722656 5.9375 196.63671875 C5.78152344 197.64436279 5.62554688 198.65200684 5.46484375 199.69018555 C5 202 5 202 4 203 C2.49581261 203.09311889 0.98728644 203.11746028 -0.51977539 203.11352539 C-1.96115623 203.11341209 -1.96115623 203.11341209 -3.43165588 203.11329651 C-4.476436 203.10813522 -5.52121613 203.10297394 -6.59765625 203.09765625 C-8.19364906 203.09553383 -8.19364906 203.09553383 -9.82188416 203.09336853 C-13.23545083 203.08775064 -16.648953 203.07519511 -20.0625 203.0625 C-22.37044176 203.05748731 -24.67838455 203.052924 -26.98632812 203.04882812 C-32.65757426 203.0377754 -38.32878253 203.02101987 -44 203 C-43.35072575 197.15097546 -42.34030102 191.48702881 -41.07666016 185.74194336 C-40.88233335 184.84496735 -40.68800655 183.94799133 -40.48779106 183.02383423 C-39.84156361 180.04509865 -39.19032328 177.06748256 -38.5390625 174.08984375 C-38.07599381 171.9603161 -37.6132325 169.83072158 -37.15075684 167.70106506 C-35.90480671 161.96796896 -34.65447033 156.23583785 -33.40317535 150.50390625 C-32.10362365 144.54801302 -30.80765386 138.59134042 -29.51123047 132.63476562 C-27.38866193 122.88475842 -25.26347538 113.13532492 -23.13671875 103.38623047 C-20.63779344 91.93054457 -18.14524067 80.47348443 -15.65567017 69.01576233 C-14.10546597 61.8814641 -12.55316172 54.74762359 -10.99999046 47.61397076 C-9.96029644 42.83865152 -8.92130018 38.06318333 -7.88409424 33.287323 C-6.91859592 28.84225043 -5.95049432 24.39775301 -4.9803009 19.95370293 C-4.6273564 18.33493708 -4.27533627 16.71596938 -3.92430115 15.09678841 C-3.4495719 12.90772602 -2.97156689 10.71940506 -2.49267578 8.53125 C-2.09376633 6.69916992 -2.09376633 6.69916992 -1.6867981 4.83007812 C-1 2 -1 2 0 0 Z M28 43 C26.42899567 52.78725804 24.86387358 62.57543701 23.30618286 72.36482334 C22.58264479 76.91075438 21.85711069 81.45634778 21.12695312 86.0012207 C20.42193733 90.39007348 19.72224567 94.77974532 19.02618408 99.17002678 C18.76015313 100.84198991 18.49222904 102.51365299 18.22235107 104.18499947 C17.84368639 106.53214493 17.47186408 108.88028241 17.1015625 111.22875977 C16.98935364 111.91424896 16.87714478 112.59973816 16.76153564 113.30599976 C16.08158453 117.67715768 16 121.48920285 16 126 C24.25 126 32.5 126 41 126 C39.74251684 114.92758304 38.31058855 103.91612492 36.6171875 92.90234375 C36.3955937 91.44694251 36.17425509 89.9915024 35.95315552 88.536026 C35.3803077 84.76949931 34.804078 81.00349822 34.22705078 77.23760986 C33.63493046 73.36901512 33.04613641 69.4999142 32.45703125 65.63085938 C31.30787405 58.08675086 30.15513033 50.5431965 29 43 C28.67 43 28.34 43 28 43 Z " fill="#94a3b8" transform="translate(864,882)"/>
<path d="M0 0 C0.96083496 0.00491455 1.92166992 0.0098291 2.91162109 0.01489258 C18.59069065 0.2715166 33.55790089 3.80452598 45.06640625 15 C59.1357741 29.89993876 60.25 45.13858603 60.25 65.3125 C45.73 65.3125 31.21 65.3125 16.25 65.3125 C15.92 60.6925 15.59 56.0725 15.25 51.3125 C13.11583123 44.18085005 13.11583123 44.18085005 8.5 38.6875 C4.24106922 36.88564467 1.86106608 36.80015932 -2.75 37.3125 C-6.46194997 38.96225554 -8.60325399 40.87770639 -10.75 44.3125 C-12.57020155 49.77310464 -12.82711125 56.09765266 -10.984375 61.59765625 C-5.52441177 71.26794323 5.81366873 77.12109691 15 82.6875 C54.40575308 107.01226205 54.40575308 107.01226205 60.70703125 131.64453125 C64.63182656 150.92967653 62.65142432 172.11237052 52.53515625 189.2109375 C44.15333597 201.72367534 31.48464507 208.8376536 16.90478516 211.91992188 C11.46102436 212.72492163 5.99187693 212.63973143 0.5 212.625 C-0.6859375 212.64111328 -1.871875 212.65722656 -3.09375 212.67382812 C-19.78812092 212.68294077 -34.38069363 208.40130678 -46.56640625 196.64453125 C-56.25415446 186.29822413 -60.91750162 172.14782746 -60.84765625 158.0390625 C-60.84515869 156.99830566 -60.84266113 155.95754883 -60.84008789 154.88525391 C-60.83098389 153.58249512 -60.82187988 152.27973633 -60.8125 150.9375 C-60.7815625 144.688125 -60.7815625 144.688125 -60.75 138.3125 C-46.23 138.3125 -31.71 138.3125 -16.75 138.3125 C-16.09 145.2425 -15.43 152.1725 -14.75 159.3125 C-12.65473753 167.19213342 -12.65473753 167.19213342 -7.6875 172.5 C-3.48719586 174.26141786 0.82406626 174.01722457 5.25 173.3125 C9.03605537 171.55468858 10.70892641 170.09612382 13.0625 166.6875 C15.62434289 159.40647284 15.65539143 153.22353414 13.52734375 145.83203125 C10.17833205 139.22618249 4.82478494 134.93253727 -1.28125 130.984375 C-1.99422241 130.50985901 -2.70719482 130.03534302 -3.44177246 129.54644775 C-5.70480864 128.04189223 -7.97649781 126.55118341 -10.25 125.0625 C-18.86080047 119.39868144 -27.43162288 113.74294789 -35.55859375 107.39453125 C-36.120625 106.95772034 -36.68265625 106.52090942 -37.26171875 106.07086182 C-48.90813589 96.79427225 -54.9993309 84.73218349 -57.75 70.3125 C-58.15652482 66.19688589 -58.22813602 62.13358641 -58.1875 58 C-58.17992676 56.91130615 -58.17235352 55.8226123 -58.16455078 54.70092773 C-57.90334717 41.86667875 -55.35420997 30.89053487 -47.75 20.3125 C-47.0075 19.260625 -46.265 18.20875 -45.5 17.125 C-33.22537108 4.57140224 -17.14619243 -0.10467946 0 0 Z " fill="#94a3b8" transform="translate(1062.75,876.6875)"/>
<path d="M0 0 C36.63 0 73.26 0 111 0 C111 13.2 111 26.4 111 40 C90.21 40 69.42 40 48 40 C48 51.88 48 63.76 48 76 C67.14 76 86.28 76 106 76 C106 89.86 106 103.72 106 118 C86.86 118 67.72 118 48 118 C48 132.19 48 146.38 48 161 C68.79 161 89.58 161 111 161 C111 174.86 111 188.72 111 203 C74.37 203 37.74 203 0 203 C0 136.01 0 69.02 0 0 Z " fill="#94a3b8" transform="translate(56,882)"/>
<path d="M0 0 C12.07308294 4.13312749 22.46429594 16.16476226 29.26171875 26.60546875 C32.64379264 31.26437054 37.03786005 34.9821651 41.26489258 38.85717773 C66.58110968 62.13523844 85.42960897 91.10720705 87.11669922 126.44433594 C88.40755097 161.5991741 77.4326277 193.72805974 53.37866211 219.66625977 C32.57970787 241.18552411 1.96588261 255.99571808 -28.12792969 257.07641602 C-30.25299638 257.09737756 -32.37500934 257.08807859 -34.5 257.0625 C-35.22703125 257.05798828 -35.9540625 257.05347656 -36.703125 257.04882812 C-38.46878681 257.03721193 -40.2344053 257.01928441 -42 257 C-45 251.375 -45 251.375 -45 248 C-45.84863453 246.26773571 -46.75410549 244.56310392 -47.6875 242.875 C-50.33017108 237.73995193 -52.20830263 232.66961618 -53.8125 227.125 C-54.0189917 226.4119873 -54.2254834 225.69897461 -54.43823242 224.96435547 C-60.65643305 202.69792179 -58.10802554 178.74074947 -47.07421875 158.52734375 C-44.46512316 153.97558669 -41.46127373 149.93816033 -38 146 C-37.41992188 145.278125 -36.83984375 144.55625 -36.2421875 143.8125 C-30.02001493 136.31465189 -22.30078809 130.86258977 -14.48046875 125.1640625 C1.80560128 113.01368451 10.3294098 96.7058913 14.609375 77.2265625 C17.56128476 52.84378786 12.9690205 27.42999653 1.78125 5.546875 C0 2 0 2 0 0 Z M21 102 C19.91408387 103.58224899 18.9075854 105.21920412 17.9375 106.875 C14.21859335 112.89019621 9.8923397 117.91580385 5 123 C4.39027344 123.63808594 3.78054688 124.27617187 3.15234375 124.93359375 C-0.35741272 128.52329911 -4.0531883 131.85206416 -7.84765625 135.13671875 C-28.92446438 153.38288477 -47.61100741 171.88547279 -51 201 C-51.13063965 203.77269047 -51.14320938 206.53713866 -51.125 209.3125 C-51.12161621 210.05435547 -51.11823242 210.79621094 -51.11474609 211.56054688 C-51.18038345 219.84760097 -51.18038345 219.84760097 -50 228 C-49.34 228.33 -48.68 228.66 -48 229 C-47.40481567 227.77821045 -47.40481567 227.77821045 -46.79760742 226.53173828 C-31.50319937 195.24561544 -31.50319937 195.24561544 -22 181 C-21.58443848 180.37254883 -21.16887695 179.74509766 -20.74072266 179.09863281 C-13.15276753 167.75663673 -4.51367282 157.75153009 6 149 C4.80117188 150.51013672 4.80117188 150.51013672 3.578125 152.05078125 C-13.55696967 173.88204419 -35.82980519 203.86508569 -40 232 C-20.79333635 229.37885531 -4.68793466 219.26714824 9 206 C9.59941406 205.4740625 10.19882812 204.948125 10.81640625 204.40625 C25.41699375 191.12682935 34.26763229 170.06207115 35.28125 150.61328125 C35.81670523 133.09064865 31.17562065 117.442839 23 102 C22.34 102 21.68 102 21 102 Z " fill="#94a3b8" transform="translate(633,322)"/>
<path d="M0 0 C1.89506542 0.05019826 3.79025797 0.09581912 5.68554688 0.13671875 C10.31434882 0.24655604 14.93702688 0.41885961 19.5625 0.625 C16.51609384 4.55499052 13.33020739 7.58039029 9.375 10.5625 C4.5221414 14.29551803 -0.26743715 18.08867901 -4.98486328 21.99194336 C-6.45288123 23.20531177 -7.92654281 24.41188438 -9.40576172 25.61157227 C-12.43284653 28.07464025 -15.30918694 30.4932138 -18.03515625 33.29296875 C-22.88184989 38.12256647 -26.57235258 39.0235133 -33.2565918 39.15673828 C-37.3275853 39.11069033 -41.37808109 38.93226315 -45.4375 38.625 C-44.0658866 34.81837793 -42.31501544 31.76113395 -39.98828125 28.45703125 C-39.30443359 27.48056641 -38.62058594 26.50410156 -37.91601562 25.49804688 C-37.20123047 24.48806641 -36.48644531 23.47808594 -35.75 22.4375 C-35.05455078 21.44685547 -34.35910156 20.45621094 -33.64257812 19.43554688 C-32.24886643 17.45103676 -30.83558313 15.48012769 -29.40307617 13.5234375 C-27.37894238 10.70715577 -27.37894238 10.70715577 -26.07543945 7.6796875 C-20.8010274 -2.84487787 -10.22687365 -0.46932575 0 0 Z " fill="#94a3b8" transform="translate(916.4375,827.375)"/>
<path d="M0 0 C9 0 9 0 11.30688477 2.01953125 C12.1159729 3.40205078 12.1159729 3.40205078 12.94140625 4.8125 C13.54404297 5.80507812 14.14667969 6.79765625 14.76757812 7.8203125 C15.35990234 8.86960937 15.95222656 9.91890625 16.5625 11 C17.18962891 12.04929687 17.81675781 13.09859375 18.46289062 14.1796875 C20.0047743 16.76911047 21.50637741 19.38244234 23 22 C23.33 14.74 23.66 7.48 24 0 C26.97 0 29.94 0 33 0 C33 13.2 33 26.4 33 40 C30.03 40 27.06 40 24 40 C21.64314827 37.52672169 20.30034871 35.76999566 18.6875 32.875 C18.28466797 32.20984375 17.88183594 31.5446875 17.46679688 30.859375 C16.70579957 29.60132436 15.95803877 28.3350833 15.22924805 27.05810547 C13.58732536 24.30906709 11.77617758 21.66426637 10 19 C9.67 25.93 9.34 32.86 9 40 C6.03 40 3.06 40 0 40 C0 26.8 0 13.6 0 0 Z " fill="#94a3b8" transform="translate(1096,1144)"/>
<path d="M0 0 C2.97 0 5.94 0 9 0 C11.35734898 2.65005052 12.71931597 4.56715771 14.3125 7.625 C15.12057982 9.05497804 15.92916634 10.48466988 16.73828125 11.9140625 C17.07899658 12.5529541 17.41971191 13.1918457 17.77075195 13.85009766 C19.37288921 16.65216731 21.20956059 19.31434089 23 22 C23.33 14.74 23.66 7.48 24 0 C26.97 0 29.94 0 33 0 C33 13.2 33 26.4 33 40 C24 40 24 40 21.69311523 38.07226562 C21.15372314 37.19248047 20.61433105 36.31269531 20.05859375 35.40625 C19.45595703 34.45878906 18.85332031 33.51132813 18.23242188 32.53515625 C17.64009766 31.53355469 17.04777344 30.53195312 16.4375 29.5 C15.81037109 28.49839844 15.18324219 27.49679687 14.53710938 26.46484375 C12.99595337 23.99428832 11.49406377 21.49931579 10 19 C9.67 25.93 9.34 32.86 9 40 C6.03 40 3.06 40 0 40 C0 26.8 0 13.6 0 0 Z " fill="#94a3b8" transform="translate(168,1144)"/>
<path d="M0 0 C5.36918532 3.99368731 7.96353556 8.11002995 9 14.8125 C9.46843351 21.71018336 7.90860129 27.39404809 3.578125 32.83203125 C-1.18346739 37.88802317 -5.09541489 38.65212923 -11.875 38.875 C-18.6524613 38.65938617 -22.41570571 37.76920005 -27.328125 32.94921875 C-32.29109384 27.43005512 -33.34831842 22.36537682 -33.18359375 15.15625 C-32.51940143 9.17011163 -29.91287483 5.06622872 -25.5625 1 C-17.78115951 -5.05032195 -8.2704341 -5.08740519 0 0 Z M-22.875 10.375 C-24.88305605 14.96606831 -25.14785127 18.33475455 -23.875 23.1875 C-21.53232721 26.92113476 -19.86231875 28.49418927 -15.875 30.375 C-11.70595142 31.03675374 -9.44778471 31.33984293 -5.84375 29.12890625 C-2.83733104 26.65846772 -1.12517751 25.12553252 0.125 21.375 C0.49688362 16.35457107 0.26222452 13.37766576 -2.875 9.375 C-5.81846227 6.17182047 -8.05008251 5.07039417 -12.3125 4.8125 C-17.20892028 5.07364242 -19.67901405 6.55540703 -22.875 10.375 Z " fill="#94a3b8" transform="translate(1072.875,1146.625)"/>
<path d="M0 0 C3.82171116 2.88150257 6.8810853 5.63823873 8.125 10.375 C8.90405854 17.25531697 9.34365208 24.61045133 5.55859375 30.6875 C1.60029239 35.34686291 -2.21858549 38.0150603 -8.36328125 38.84765625 C-15.50272988 39.02105363 -21.17247276 38.71360362 -26.703125 33.7265625 C-27.17234375 33.15679688 -27.6415625 32.58703125 -28.125 32 C-28.60453125 31.43539063 -29.0840625 30.87078125 -29.578125 30.2890625 C-33.55396701 24.4211029 -33.74094886 18.24902704 -32.875 11.375 C-30.7154999 5.72137313 -26.8097216 1.73061069 -21.875 -1.625 C-14.33972458 -4.81300114 -6.93845336 -4.26806177 0 0 Z M-22.875 10.375 C-25.17807773 14.07995112 -25.08923154 17.25979155 -24.41796875 21.4453125 C-23.37051127 25.16793118 -21.14986075 27.41885444 -18.125 29.6875 C-14.65372487 30.7481674 -11.42397536 31.05067031 -7.875 30.375 C-4.2011473 28.35276968 -1.07562351 25.45711994 0.125 21.375 C0.59857835 17.11279488 0.42330613 14.9289971 -1.625 11.125 C-4.97904668 6.83506784 -4.97904668 6.83506784 -9.91796875 5.0234375 C-16.00467307 4.63600908 -18.7830479 5.88383306 -22.875 10.375 Z " fill="#94a3b8" transform="translate(144.875,1146.625)"/>
<path d="M0 0 C3.40549293 2.9493299 5.28433844 6.24364031 6.69140625 10.46484375 C7.29747881 19.19461967 7.24737089 25.33223619 1.37890625 32.15234375 C-4.64910629 37.33923826 -9.4412785 37.96377438 -17.25 37.7421875 C-22.9426971 37.22599147 -25.85075322 35.15109957 -29.55859375 31.02734375 C-34.27208334 25.36355384 -34.75635244 20.97859475 -34.6171875 13.66015625 C-34.03536671 7.63573337 -31.35205603 4.25322716 -26.99609375 0.15234375 C-18.76614393 -6.3688453 -8.4196324 -5.86822864 0 0 Z M-24.30859375 9.46484375 C-26.61167148 13.16979487 -26.52282529 16.3496353 -25.8515625 20.53515625 C-24.80410502 24.25777493 -22.5834545 26.50869819 -19.55859375 28.77734375 C-16.08731862 29.83801115 -12.85756911 30.14051406 -9.30859375 29.46484375 C-5.63474105 27.44261343 -2.50921726 24.54696369 -1.30859375 20.46484375 C-0.8350154 16.20263863 -1.01028762 14.01884085 -3.05859375 10.21484375 C-6.41264043 5.92491159 -6.41264043 5.92491159 -11.3515625 4.11328125 C-17.43826682 3.72585283 -20.21664165 4.97367681 -24.30859375 9.46484375 Z " fill="#94a3b8" transform="translate(395.30859375,1147.53515625)"/>
<path d="M0 0 C0.66 0.66 1.32 1.32 2 2 C1.76208141 4.45849212 1.136119 5.81202615 -0.3125 7.8125 C-2 9 -2 9 -3.875 8.875 C-6 8 -6 8 -8.1875 6.4375 C-12.15884314 4.4077024 -15.62581938 4.16206382 -20 5 C-23.5694752 6.936867 -25.69404468 9.08213404 -27 13 C-27.3711875 18.01103128 -27.11788946 20.99128499 -24 25 C-22.10523066 27.11339657 -20.7566758 27.8815889 -17.953125 28.3203125 C-12.316574 28.60403151 -9.62677874 27.33558467 -5 24 C-2.31417755 24.07673778 -1.34585686 24.72825532 0.75 26.375 C2 28 2 28 2 31 C0.57421875 32.3515625 0.57421875 32.3515625 -1.3125 33.625 C-2.23482422 34.26308594 -2.23482422 34.26308594 -3.17578125 34.9140625 C-9.00755202 38.38565195 -16.46302135 37.6060324 -23 37 C-28.17464968 35.14421046 -32.15755112 31.70097315 -35 27 C-37.37696076 20.32187216 -37.80029151 13.67897546 -35.2109375 6.94921875 C-32.2940541 1.41188319 -28.52700374 -1.56895364 -22.8125 -3.8125 C-14.65212678 -6.27958958 -7.06330589 -4.58768642 0 0 Z " fill="#94a3b8" transform="translate(845,1148)"/>
<path d="M0 0 C2.05078125 0.03255208 4.1015625 0.06510417 6.15234375 0.09765625 C9.37494531 7.17203395 12.3067163 14.34140125 15.15380859 21.57470703 C15.90995845 23.4919637 16.67366931 25.40610501 17.4375 27.3203125 C17.91574219 28.53332031 18.39398437 29.74632812 18.88671875 30.99609375 C19.32209961 32.09614746 19.75748047 33.19620117 20.20605469 34.32958984 C21.15234375 37.09765625 21.15234375 37.09765625 21.15234375 40.09765625 C18.18234375 40.09765625 15.21234375 40.09765625 12.15234375 40.09765625 C10.89569397 37.19165364 10.15234375 35.30161041 10.15234375 32.09765625 C5.20234375 32.42765625 0.25234375 32.75765625 -4.84765625 33.09765625 C-5.83765625 35.40765625 -6.82765625 37.71765625 -7.84765625 40.09765625 C-10.81765625 40.09765625 -13.78765625 40.09765625 -16.84765625 40.09765625 C-16.13080331 35.57884399 -14.58187705 31.4544694 -12.94140625 27.20703125 C-12.51426331 26.08920258 -12.51426331 26.08920258 -12.07849121 24.9487915 C-11.47855494 23.3814693 -10.87666925 21.81489206 -10.27294922 20.24902344 C-9.34613894 17.84371844 -8.42653741 15.43574701 -7.5078125 13.02734375 C-6.92360104 11.50374362 -6.33898001 9.98030046 -5.75390625 8.45703125 C-5.47784546 7.73416931 -5.20178467 7.01130737 -4.9173584 6.26654053 C-2.54605451 0.13456948 -2.54605451 0.13456948 0 0 Z M1.15234375 14.09765625 C0.16234375 17.39765625 -0.82765625 20.69765625 -1.84765625 24.09765625 C0.79234375 24.09765625 3.43234375 24.09765625 6.15234375 24.09765625 C5.16234375 20.79765625 4.17234375 17.49765625 3.15234375 14.09765625 C2.49234375 14.09765625 1.83234375 14.09765625 1.15234375 14.09765625 Z " fill="#94a3b8" transform="translate(686.84765625,1143.90234375)"/>
<path d="M0 0 C2.97 0 5.94 0 9 0 C11.1383524 5.53507211 13.27454069 11.0709725 15.40869141 16.60766602 C16.13562945 18.49266353 16.86316759 20.37742973 17.59130859 22.26196289 C18.63535364 24.96440602 19.67726643 27.66766261 20.71875 30.37109375 C21.04685669 31.21900986 21.37496338 32.06692596 21.7130127 32.9405365 C24 38.88612829 24 38.88612829 24 40 C21.03 40 18.06 40 15 40 C12 34.25 12 34.25 12 32 C7.05 32 2.1 32 -3 32 C-3.66 34.31 -4.32 36.62 -5 39 C-6 40 -6 40 -8.06640625 40.09765625 C-11.53320312 40.04882812 -11.53320312 40.04882812 -15 40 C-12.29577539 31.50778587 -9.04929562 23.23646589 -5.8125 14.9375 C-5.24784991 13.4851026 -4.6833952 12.03262923 -4.11914062 10.58007812 C-2.74834462 7.05250551 -1.3749091 3.52597141 0 0 Z M4 13 C2.68 16.63 1.36 20.26 0 24 C2.97 24 5.94 24 9 24 C7.68 20.37 6.36 16.74 5 13 C4.67 13 4.34 13 4 13 Z " fill="#94a3b8" transform="translate(773,1144)"/>
<path d="M0 0 C2.97 0 5.94 0 9 0 C11.14057344 5.37344658 13.27670522 10.7486288 15.40869141 16.12548828 C16.13500283 17.9554031 16.86253807 19.78483267 17.59130859 21.61376953 C18.63699259 24.23864976 19.67830159 26.86522836 20.71875 29.4921875 C21.04685669 30.31306854 21.37496338 31.13394958 21.7130127 31.97970581 C24 37.77225659 24 37.77225659 24 40 C21.03 40 18.06 40 15 40 C14.01 37.69 13.02 35.38 12 33 C7.05 32.67 2.1 32.34 -3 32 C-3.66 34.31 -4.32 36.62 -5 39 C-6 40 -6 40 -8.06640625 40.09765625 C-8.89011719 40.08605469 -9.71382812 40.07445312 -10.5625 40.0625 C-11.38878906 40.05347656 -12.21507812 40.04445313 -13.06640625 40.03515625 C-13.70449219 40.02355469 -14.34257813 40.01195312 -15 40 C-10.38370942 26.51319027 -5.25855613 13.24825948 0 0 Z M4 13 C3.49384702 14.26839526 2.99530901 15.53983102 2.5 16.8125 C2.2215625 17.52019531 1.943125 18.22789063 1.65625 18.95703125 C0.8470838 21.11841216 0.8470838 21.11841216 1 24 C3.64 24 6.28 24 9 24 C7.68 20.37 6.36 16.74 5 13 C4.67 13 4.34 13 4 13 Z " fill="#94a3b8" transform="translate(929,1144)"/>
<path d="M0 0 C2.97 0 5.94 0 9 0 C9.02505615 0.93384521 9.0501123 1.86769043 9.07592773 2.82983398 C9.17086928 6.28325189 9.27011258 9.7364896 9.37231445 13.18969727 C9.41571813 14.68639269 9.45738913 16.18313939 9.49731445 17.67993164 C9.55488616 19.82714312 9.61861716 21.97409521 9.68359375 24.12109375 C9.72025146 25.4145874 9.75690918 26.70808105 9.79467773 28.04077148 C9.6667278 30.88555008 9.6667278 30.88555008 11 32 C14.465 31.505 14.465 31.505 18 31 C18.33 20.77 18.66 10.54 19 0 C21.97 0 24.94 0 28 0 C28.07451364 4.3049777 28.12877223 8.60960734 28.16479492 12.91503906 C28.17982196 14.37767075 28.20024955 15.84025782 28.22631836 17.30273438 C28.26297267 19.4128728 28.27978676 21.52241226 28.29296875 23.6328125 C28.3086792 24.90012207 28.32438965 26.16743164 28.34057617 27.47314453 C27.86838887 32.36290635 26.13782081 35.6052519 23.0625 39.375 C18.18032378 41.96554248 13.39850838 41.84009264 8 41 C4.30748231 39.34083813 2.42810156 37.02968821 0.86376953 33.26708984 C-0.09097995 29.65588082 -0.2272139 26.58402581 -0.1953125 22.8515625 C-0.1924826 22.19417084 -0.18965271 21.53677917 -0.18673706 20.85946655 C-0.17563447 18.78111767 -0.15054986 16.70321634 -0.125 14.625 C-0.11495731 13.20703752 -0.10583373 11.78906821 -0.09765625 10.37109375 C-0.07572805 6.91391963 -0.04126818 3.45700358 0 0 Z " fill="#94a3b8" transform="translate(254,1144)"/>
<path d="M0 0 C0.66 0.66 1.32 1.32 2 2 C1.68134222 5.29279709 0.45484649 6.86535088 -2 9 C-4.36779723 8.07918997 -6.66962023 7.18150493 -8.8984375 5.95703125 C-12.53551988 4.30073909 -16.09698301 4.32473755 -20 5 C-23.57236674 6.9270028 -25.69560702 9.08682105 -27 13 C-27.40109454 17.25160217 -27.26378256 19.5006973 -25.25 23.3125 C-21.87464258 27.34417692 -20.37421462 27.86701149 -15.125 28.375 C-10.8164907 28.30292457 -8.49278637 26.46082676 -5 24 C-2.33796156 24.07605824 -1.3263524 24.76367585 0.8125 26.3125 C2 28 2 28 2.0625 29.9375 C0.02195185 33.89856406 -3.9152791 35.63842637 -8 37 C-23.46943222 38.28453174 -23.46943222 38.28453174 -29.4140625 33.5859375 C-34.77769142 28.22230858 -36.33303925 24.22927666 -36.625 16.5 C-36.38422683 10.12584707 -35.65546586 5.5323646 -31 1 C-21.43291168 -6.65752836 -10.2687388 -6.66964653 0 0 Z " fill="#94a3b8" transform="translate(1001,1148)"/>
<path d="M0 0 C0.66 0.66 1.32 1.32 2 2 C1.68134222 5.29279709 0.45484649 6.86535088 -2 9 C-4.36779723 8.07918997 -6.66962023 7.18150493 -8.8984375 5.95703125 C-12.53551988 4.30073909 -16.09698301 4.32473755 -20 5 C-23.57236674 6.9270028 -25.69560702 9.08682105 -27 13 C-27.40109454 17.25160217 -27.26378256 19.5006973 -25.25 23.3125 C-21.87464258 27.34417692 -20.37421462 27.86701149 -15.125 28.375 C-10.8164907 28.30292457 -8.49278637 26.46082676 -5 24 C-2.33796156 24.07605824 -1.3263524 24.76367585 0.8125 26.3125 C2 28 2 28 2.0625 29.9375 C0.02195185 33.89856406 -3.9152791 35.63842637 -8 37 C-23.46943222 38.28453174 -23.46943222 38.28453174 -29.4140625 33.5859375 C-34.77769142 28.22230858 -36.33303925 24.22927666 -36.625 16.5 C-36.38422683 10.12584707 -35.65546586 5.5323646 -31 1 C-21.43291168 -6.65752836 -10.2687388 -6.66964653 0 0 Z " fill="#94a3b8" transform="translate(97,1148)"/>
<path d="M0 0 C15.72727273 0 15.72727273 0 20 2 C22.96826259 5.19659048 24.24229475 7.75985101 24.4375 12.0625 C23.80809944 17.72710501 21.96946743 20.03053257 18 24 C20.64 29.28 23.28 34.56 26 40 C22.7 40 19.4 40 16 40 C13.69 35.71 11.38 31.42 9 27 C8.67 31.29 8.34 35.58 8 40 C5.36 40 2.72 40 0 40 C0 26.8 0 13.6 0 0 Z M8 9 C8 11.31 8 13.62 8 16 C11.465 15.505 11.465 15.505 15 15 C15.6814823 13.10820797 15.6814823 13.10820797 16 11 C14.10244856 8.65026182 14.10244856 8.65026182 10.875 8.875 C9.92625 8.91625 8.9775 8.9575 8 9 Z " fill="#94a3b8" transform="translate(418,1144)"/>
<path d="M0 0 C2.05078125 0.03255208 4.1015625 0.06510417 6.15234375 0.09765625 C9.73889776 8.58374232 13.15605139 17.12469803 16.46484375 25.72265625 C16.91923828 26.89183594 17.37363281 28.06101562 17.84179688 29.265625 C18.27041016 30.37808594 18.69902344 31.49054688 19.140625 32.63671875 C19.52774658 33.63912598 19.91486816 34.6415332 20.3137207 35.67431641 C21.15234375 38.09765625 21.15234375 38.09765625 21.15234375 40.09765625 C18.18234375 40.09765625 15.21234375 40.09765625 12.15234375 40.09765625 C11.16234375 37.78765625 10.17234375 35.47765625 9.15234375 33.09765625 C4.20234375 32.76765625 -0.74765625 32.43765625 -5.84765625 32.09765625 C-6.34265625 34.57265625 -6.34265625 34.57265625 -6.84765625 37.09765625 C-7.17765625 38.08765625 -7.50765625 39.07765625 -7.84765625 40.09765625 C-10.81765625 40.09765625 -13.78765625 40.09765625 -16.84765625 40.09765625 C-16.22801699 35.20374154 -14.76815922 30.87898036 -12.94140625 26.328125 C-12.65664429 25.60651688 -12.37188232 24.88490875 -12.07849121 24.14143372 C-11.47943453 22.62679247 -10.87753842 21.11327146 -10.27294922 19.60083008 C-9.34458978 17.27748199 -8.42551554 14.95062205 -7.5078125 12.62304688 C-6.92371402 11.14952663 -6.33909703 9.67621179 -5.75390625 8.203125 C-5.47784546 7.5052739 -5.20178467 6.80742279 -4.9173584 6.08842468 C-2.53114311 0.13378135 -2.53114311 0.13378135 0 0 Z M1.15234375 14.09765625 C0.16234375 17.39765625 -0.82765625 20.69765625 -1.84765625 24.09765625 C0.79234375 24.09765625 3.43234375 24.09765625 6.15234375 24.09765625 C5.16234375 20.79765625 4.17234375 17.49765625 3.15234375 14.09765625 C2.49234375 14.09765625 1.83234375 14.09765625 1.15234375 14.09765625 Z " fill="#94a3b8" transform="translate(495.84765625,1143.90234375)"/>
<path d="M0 0 C0.66 0.66 1.32 1.32 2 2 C1.68134222 5.29279709 0.45484649 6.86535088 -2 9 C-4.9719385 7.87548273 -7.33440687 6.77706209 -10 5 C-14.79689791 4.30079115 -18.77459282 4.28517915 -23 6.75 C-25.97870059 10.10103817 -26.87462312 11.87160806 -27.375 16.375 C-26.92831385 20.69296607 -25.7684289 22.69326548 -23 26 C-20.00749464 28.35125421 -16.77599472 28.40261887 -13.0234375 28.33984375 C-9.8288757 27.80330538 -7.6073758 25.83701477 -5 24 C-2.33796156 24.07605824 -1.3263524 24.76367585 0.8125 26.3125 C2 28 2 28 2.0625 29.9375 C0.02195185 33.89856406 -3.9152791 35.63842637 -8 37 C-23.71968566 38.21842544 -23.71968566 38.21842544 -30 33 C-35.69143564 26.70796059 -36.47547983 20.97055887 -36.40625 12.59375 C-35.79712827 7.20536544 -33.80985809 3.79314819 -30 0 C-20.90990388 -7.13652283 -9.36730982 -6.08415957 0 0 Z " fill="#94a3b8" transform="translate(656,1148)"/>
<path d="M0 0 C1.2375 1.2065625 1.2375 1.2065625 2.5 2.4375 C1.04744301 6.26696843 -0.92895561 7.55800295 -4.5 9.4375 C-5.16 8.4475 -5.82 7.4575 -6.5 6.4375 C-9.08380177 6.18719023 -9.08380177 6.18719023 -11.5 6.4375 C-10.25549565 10.17101304 -8.73503895 11.02669523 -5.625 13.375 C-0.84518488 16.99121581 2.02961071 19.35434744 3.375 25.3125 C3.75127466 29.43616308 2.84257837 31.96402173 0.5 35.4375 C-3.56517735 39.26569392 -7.29280503 38.93247051 -12.64453125 38.7890625 C-16.38413895 38.32864568 -18.12683681 37.36440126 -20.5 34.4375 C-21.8125 31.6875 -21.8125 31.6875 -22.5 29.4375 C-20.52 28.1175 -18.54 26.7975 -16.5 25.4375 C-15.4171875 26.4275 -15.4171875 26.4275 -14.3125 27.4375 C-11.28402067 29.5910853 -10.10296594 29.84926754 -6.5 29.4375 C-6.72157439 25.6361143 -7.50727973 24.42984993 -10.1875 21.61328125 C-11.28161191 20.64734429 -12.38618508 19.69314973 -13.5 18.75 C-20.36422985 12.79520153 -20.36422985 12.79520153 -20.875 7.6875 C-20.83910486 4.40309456 -20.28939509 2.58365083 -18.25 0 C-12.84325474 -5.03810354 -5.67344163 -4.74579359 0 0 Z " fill="#94a3b8" transform="translate(236.5,1146.5625)"/>
<path d="M0 0 C17.39130435 0 17.39130435 0 21.875 3.4375 C24.73912389 7.41544984 24.59237532 12.31858946 24 17 C22.20622099 20.1225042 20.79785562 21.54716303 17.6875 23.3125 C15 24 15 24 8 24 C8 29.28 8 34.56 8 40 C5.36 40 2.72 40 0 40 C0 26.8 0 13.6 0 0 Z M8 9 C8 11.31 8 13.62 8 16 C11.465 15.505 11.465 15.505 15 15 C15.6814823 13.10820797 15.6814823 13.10820797 16 11 C14.10244856 8.65026182 14.10244856 8.65026182 10.875 8.875 C9.92625 8.91625 8.9775 8.9575 8 9 Z " fill="#94a3b8" transform="translate(722,1144)"/>
<path d="M0 0 C3.25109676 -0.79618696 5.78763307 -1.03690325 9 0 C11.97930787 3.69175105 14.01294354 7.70642463 16 12 C16.40089844 11.13375 16.80179688 10.2675 17.21484375 9.375 C17.78332031 8.26125 18.35179687 7.1475 18.9375 6 C19.48277344 4.88625 20.02804687 3.7725 20.58984375 2.625 C23 0 23 0 25.26220703 -0.375 C27.53857178 -0.375 29.73964377 -0.26112419 32 0 C30.54237887 3.08367051 29.08377822 6.16687672 27.625 9.25 C27.2125 10.12269531 26.8 10.99539063 26.375 11.89453125 C25.77558594 13.16103516 25.77558594 13.16103516 25.1640625 14.453125 C24.79748535 15.22817383 24.4309082 16.00322266 24.05322266 16.80175781 C23.36954253 18.22870632 22.65017487 19.63929311 21.890625 21.02734375 C20.92000762 23.1771761 20.69261067 24.76256536 20.5859375 27.109375 C20.54726563 27.86347656 20.50859375 28.61757812 20.46875 29.39453125 C20.42234375 30.56048828 20.42234375 30.56048828 20.375 31.75 C20.33632813 32.54277344 20.29765625 33.33554688 20.2578125 34.15234375 C20.163892 36.10119416 20.08087178 38.05056451 20 40 C17.36 40 14.72 40 12 40 C12.05542969 39.01644531 12.11085938 38.03289062 12.16796875 37.01953125 C12.3945121 24.04319171 7.55006091 14.86463843 0.99389648 3.88500977 C0 2 0 2 0 0 Z " fill="#94a3b8" transform="translate(552,1144)"/>
<path d="M0 0 C7.59 0 15.18 0 23 0 C23 2.97 23 5.94 23 9 C20.69 9 18.38 9 16 9 C16 19.23 16 29.46 16 40 C13.03 40 10.06 40 7 40 C7 29.77 7 19.54 7 9 C4.69 9 2.38 9 0 9 C0 6.03 0 3.06 0 0 Z " fill="#94a3b8" transform="translate(327,1144)"/>
<path d="M0 0 C2.97 0 5.94 0 9 0 C9 10.56 9 21.12 9 32 C12.63 32 16.26 32 20 32 C20 34.64 20 37.28 20 40 C13.4 40 6.8 40 0 40 C0 26.8 0 13.6 0 0 Z " fill="#94a3b8" transform="translate(298,1144)"/>
<path d="M0 0 C7.26 0 14.52 0 22 0 C22 2.97 22 5.94 22 9 C19.69 9 17.38 9 15 9 C15 19.23 15 29.46 15 40 C12.36 40 9.72 40 7 40 C7 29.77 7 19.54 7 9 C4.69 9 2.38 9 0 9 C0 6.03 0 3.06 0 0 Z " fill="#94a3b8" transform="translate(882,1144)"/>
<path d="M0 0 C2.97 0 5.94 0 9 0 C9 13.2 9 26.4 9 40 C6.03 40 3.06 40 0 40 C0 26.8 0 13.6 0 0 Z " fill="#94a3b8" transform="translate(1017,1144)"/>
<path d="M0 0 C2.97 0 5.94 0 9 0 C9 13.2 9 26.4 9 40 C6.03 40 3.06 40 0 40 C0 26.8 0 13.6 0 0 Z " fill="#94a3b8" transform="translate(457,1144)"/>
<path d="M0 0 C2.64 0 5.28 0 8 0 C8 13.2 8 26.4 8 40 C5.36 40 2.72 40 0 40 C0 26.8 0 13.6 0 0 Z " fill="#94a3b8" transform="translate(861,1144)"/>
<path d="M0 0 C1.28132812 0.00902344 2.56265625 0.01804687 3.8828125 0.02734375 C4.87023437 0.03894531 5.85765625 0.05054688 6.875 0.0625 C6.96497625 6.44438709 6.66689525 12.65454149 6 19 C5.88205078 20.27327148 5.88205078 20.27327148 5.76171875 21.57226562 C5.67792969 22.38244141 5.59414063 23.19261719 5.5078125 24.02734375 C5.43449707 24.7555835 5.36118164 25.48382324 5.28564453 26.23413086 C4.875 28.0625 4.875 28.0625 2.875 30.0625 C-0.13146149 24.19854582 -2.82750978 18.26373594 -5.375 12.1875 C-5.92027344 10.90746094 -5.92027344 10.90746094 -6.4765625 9.6015625 C-6.81945312 8.786875 -7.16234375 7.9721875 -7.515625 7.1328125 C-7.82532227 6.39820801 -8.13501953 5.66360352 -8.45410156 4.90673828 C-9.125 3.0625 -9.125 3.0625 -9.125 1.0625 C-6.12186252 -0.43906874 -3.33432478 -0.03031204 0 0 Z " fill="#94a3b8" transform="translate(792.125,363.9375)"/>
<path d="M0 0 C3.3 0 6.6 0 10 0 C7.69983997 4.60032006 5.17899895 7.96604676 1 11 C-2.9375 11.4375 -2.9375 11.4375 -6 11 C-4.02 7.37 -2.04 3.74 0 0 Z " fill="#94a3b8" transform="translate(1061,1131)"/>
<path d="M0 0 C2.53159304 0.0035757 4.99816222 0.11947306 7.515625 0.37890625 C7.11730469 0.8378125 6.71898437 1.29671875 6.30859375 1.76953125 C5.51388672 2.68992187 5.51388672 2.68992187 4.703125 3.62890625 C3.87167969 4.58216797 3.87167969 4.58216797 3.0234375 5.5546875 C1.41552383 7.40266952 1.41552383 7.40266952 0.078125 9.81640625 C-1.484375 11.37890625 -1.484375 11.37890625 -5.171875 11.62890625 C-6.265 11.54640625 -7.358125 11.46390625 -8.484375 11.37890625 C-4.72249817 0.72025522 -4.72249817 0.72025522 0 0 Z " fill="#94a3b8" transform="translate(464.484375,1130.62109375)"/>
<path d="M0 0 C-1.68100903 3.73256305 -3.95908528 6.89270601 -6.375 10.1875 C-7.14585937 11.25355469 -7.91671875 12.31960938 -8.7109375 13.41796875 C-10.97027676 15.9664726 -11.69824849 16.76221954 -15 17 C-15.99 17 -16.98 17 -18 17 C-2.91549296 0 -2.91549296 0 0 0 Z " fill="#94a3b8" transform="translate(639,471)"/>
<path d="M0 0 C0.66 0.66 1.32 1.32 2 2 C0.57277341 3.1998278 -0.86715776 4.3845576 -2.3125 5.5625 C-3.51326172 6.55443359 -3.51326172 6.55443359 -4.73828125 7.56640625 C-5.48464844 8.03949219 -6.23101562 8.51257813 -7 9 C-7.99 8.67 -8.98 8.34 -10 8 C-8.68 5.69 -7.36 3.38 -6 1 C-4.7934375 1.0309375 -4.7934375 1.0309375 -3.5625 1.0625 C-1.06645115 1.29633621 -1.06645115 1.29633621 0 0 Z " fill="#94a3b8" transform="translate(309,363)"/>
</svg>
